<svg width="268" height="94" viewBox="0 0 268 94" fill="none" xmlns="http://www.w3.org/2000/svg">
<g filter="url(#filter0_d_12_58)">
<path d="M4 39V5.4H23.944L28.888 10.344V23.568L23.488 28.968H10.792V39H4ZM6.616 36.744H8.08V26.232H22.288L26.368 22.152V11.616L22.72 7.992H6.616V36.744ZM10.792 22.176H20.176L22.12 20.256V13.656L20.656 12.192H10.792V22.176ZM8.08 24.744V9.456H22.048L24.88 12.264V21.528L21.616 24.744H8.08ZM33.8275 39V32.232H38.4835V20.208L38.1235 19.848H33.8755V13.08H39.9475L41.5795 15L43.4275 13.08H52.7635L58.0195 18.336L52.7875 23.424L49.4755 19.872H46.7395L45.2755 21.336V32.256H49.9315V39H33.8275ZM36.2995 36.36H47.4595V34.872H42.6115V19.776L45.1075 17.28H51.0595L53.1715 19.632L54.2995 18.576L51.7315 15.816H44.4595L41.7955 18.48L39.3475 15.816H36.2995V17.28H38.9155L41.1235 19.704V34.872H36.2995V36.36ZM66.334 39L61.39 34.056V18.024L66.334 13.08H81.334L86.278 18.024V34.056L81.334 39H66.334ZM67.966 36.384H79.942L83.614 32.688V19.392L79.942 15.696H67.822L64.102 19.416V32.496L67.966 36.384ZM68.638 34.896L65.566 31.872V20.064L68.494 17.184H79.27L82.126 20.016V32.064L79.27 34.896H68.638ZM69.646 32.208H78.022L79.486 30.744V21.336L78.022 19.872H69.646L68.182 21.336V30.744L69.646 32.208Z" fill="#FF8A00"/>
<path d="M104.916 39V5.4H126.276V12.192H111.708V18.648H125.364V25.44H111.708V39H104.916ZM107.556 36.456H109.044V22.704H122.724V21.24H109.044V9.456H123.684V7.992H107.556V36.456ZM150.566 13.08L155.51 18.024V24.864L150.566 29.808H137.51V30.744L138.974 32.208H155.174V39H135.662L130.718 34.056V18.024L135.662 13.08H150.566ZM148.478 17.184L151.358 20.016V23.28L148.79 25.824H134.63V20.208L137.702 17.184H148.478ZM149.15 15.696H137.03L133.142 19.584V32.664L136.862 36.384H152.366V34.896H137.534L134.63 32.04V27.264H149.342L152.822 23.832V19.392L149.15 15.696ZM147.254 19.872H138.974L137.51 21.336V23.256H147.734L148.742 22.248V21.336L147.254 19.872ZM161.052 39V32.208H176.172L177.636 30.744V30.864L176.22 29.424H165.756L160.812 24.48V18.024L165.756 13.08H183.924V19.872H169.044L167.58 21.336V21.192L169.044 22.656H179.46L184.404 27.6V34.056L179.46 39H161.052ZM163.644 36.264H178.236L181.764 32.76V28.632L178.236 25.2H167.46L164.964 22.752V19.848L167.652 17.184H181.332V15.696H167.004L163.476 19.224V23.352L166.788 26.688H177.564L180.252 29.232V32.136L177.564 34.8H163.644V36.264ZM190.047 39V3.024H196.839V13.536L197.295 13.08H208.503L213.447 18.024V39H206.655V21.336L205.191 19.848H198.759L196.839 21.792V39H190.047ZM192.759 36.384H194.223V20.76L197.895 17.136H206.679L209.343 19.776V36.384H210.831V19.152L207.351 15.672H197.535L194.223 18.936V5.592H192.759V36.384Z" fill="white"/>
</g>
<defs>
<filter id="filter0_d_12_58" x="0" y="0.0240021" width="217.447" height="43.976" filterUnits="userSpaceOnUse" color-interpolation-filters="sRGB">
<feFlood flood-opacity="0" result="BackgroundImageFix"/>
<feColorMatrix in="SourceAlpha" type="matrix" values="0 0 0 0 0 0 0 0 0 0 0 0 0 0 0 0 0 0 127 0" result="hardAlpha"/>
<feOffset dy="1"/>
<feGaussianBlur stdDeviation="2"/>
<feComposite in2="hardAlpha" operator="out"/>
<feColorMatrix type="matrix" values="0 0 0 0 0 0 0 0 0 0 0 0 0 0 0 0 0 0 0.25 0"/>
<feBlend mode="normal" in2="BackgroundImageFix" result="effect1_dropShadow_12_58"/>
<feBlend mode="normal" in="SourceGraphic" in2="effect1_dropShadow_12_58" result="shape"/>
</filter>
</defs>
</svg>
